# Blender v2.83.2 OBJ File: ''
# www.blender.org
mtllib tip_nicer.mtl
o Cylinder_Cylinder.005
v -0.004700 0.000000 -0.000056
v -0.004700 0.000000 0.063056
v -0.004610 0.000917 -0.000056
v -0.004610 0.000917 0.063056
v -0.004342 0.001799 -0.000056
v -0.004342 0.001799 0.063056
v -0.003908 0.002611 -0.000056
v -0.003908 0.002611 0.063056
v -0.003323 0.003323 -0.000056
v -0.003323 0.003323 0.063056
v -0.002611 0.003908 -0.000056
v -0.002611 0.003908 0.063056
v -0.001799 0.004342 -0.000056
v -0.001799 0.004342 0.063056
v -0.000917 0.004610 -0.000056
v -0.000917 0.004610 0.063056
v -0.000000 0.004700 -0.000056
v 0.000000 0.004700 0.063056
v 0.000917 0.004610 -0.000056
v 0.000917 0.004610 0.063056
v 0.001799 0.004342 -0.000056
v 0.001799 0.004342 0.063056
v 0.002611 0.003908 -0.000056
v 0.002611 0.003908 0.063056
v 0.003323 0.003323 -0.000056
v 0.003323 0.003323 0.063056
v 0.003908 0.002611 -0.000056
v 0.003908 0.002611 0.063056
v 0.004342 0.001799 -0.000056
v 0.004342 0.001799 0.063056
v 0.004610 0.000917 -0.000056
v 0.004610 0.000917 0.063056
v 0.004700 0.000000 -0.000056
v 0.004700 0.000000 0.063056
v 0.004610 -0.000917 -0.000056
v 0.004610 -0.000917 0.063056
v 0.004342 -0.001799 -0.000056
v 0.004342 -0.001799 0.063056
v 0.003908 -0.002611 -0.000056
v 0.003908 -0.002611 0.063056
v 0.003323 -0.003323 -0.000056
v 0.003323 -0.003323 0.063056
v 0.002611 -0.003908 -0.000056
v 0.002611 -0.003908 0.063056
v 0.001799 -0.004342 -0.000056
v 0.001799 -0.004342 0.063056
v 0.000917 -0.004610 -0.000056
v 0.000917 -0.004610 0.063056
v -0.000000 -0.004700 -0.000056
v 0.000000 -0.004700 0.063056
v -0.000917 -0.004610 -0.000056
v -0.000917 -0.004610 0.063056
v -0.001799 -0.004342 -0.000056
v -0.001799 -0.004342 0.063056
v -0.002611 -0.003908 -0.000056
v -0.002611 -0.003908 0.063056
v -0.003323 -0.003323 -0.000056
v -0.003323 -0.003323 0.063056
v -0.003908 -0.002611 -0.000056
v -0.003908 -0.002611 0.063056
v -0.004342 -0.001799 -0.000056
v -0.004610 -0.000917 -0.000056
v -0.004610 -0.000917 0.063056
v -0.004342 -0.001799 0.063056
vt 0.140204 0.000000
vt 0.140204 0.684952
vt 0.108649 0.000000
vt 0.108650 0.684952
vt 0.077701 0.000000
vt 0.077701 0.684952
vt 0.048549 0.000000
vt 0.048549 0.684952
vt 0.022312 0.000000
vt 0.022312 0.684952
vt 0.000000 0.000000
vt 0.475394 0.684952
vt 0.475394 0.000000
vt 0.501631 0.684952
vt 0.501631 0.000000
vt 0.530783 0.684952
vt 0.530783 0.000000
vt 0.561731 0.684952
vt 0.561731 0.000000
vt 0.593286 0.684952
vt 0.593286 0.000000
vt 0.624234 0.684952
vt 0.624234 0.000000
vt 0.653386 0.684952
vt 0.653386 0.000000
vt 0.679623 0.684952
vt 0.475394 0.000000
vt 0.475394 0.684952
vt 0.449158 0.000000
vt 0.449158 0.684952
vt 0.420005 0.000000
vt 0.420005 0.684952
vt 0.389057 0.000000
vt 0.389057 0.684952
vt 0.357503 0.000000
vt 0.357503 0.684952
vt 0.326555 0.000000
vt 0.326555 0.684952
vt 0.297402 0.000000
vt 0.297402 0.684952
vt 0.271166 0.000000
vt 0.271166 0.684952
vt 0.248853 0.000000
vt 0.000000 0.684952
vt 0.684952 0.684952
vt 0.000000 0.711189
vt 0.684952 0.711188
vt 0.000000 0.740341
vt 0.684952 0.740341
vt 0.000000 0.771289
vt 0.684952 0.771289
vt 0.000000 0.802844
vt 0.684952 0.802844
vt 0.000000 0.833792
vt 0.684952 0.833792
vt 0.000000 0.862944
vt 0.684952 0.862944
vt 0.000000 0.889181
vt 0.684952 0.889181
vt 0.000000 0.911493
vt 0.248853 0.000000
vt 0.248853 0.684952
vt 0.226541 0.000000
vt 0.226541 0.684952
vt 0.200304 0.000000
vt 1.000000 0.144411
vt 1.000000 0.175966
vt 0.993844 0.113463
vt 0.171152 0.000000
vt 0.171152 0.684952
vt 0.200304 0.684952
vt 0.763934 0.338609
vt 0.793086 0.326533
vt 0.737697 0.356139
vt 0.000000 0.684952
vt 0.679623 0.000000
vt 0.248853 0.684952
vt 0.684952 0.911493
vt 0.993844 0.206914
vt 0.981769 0.236066
vt 0.964238 0.262303
vt 0.941926 0.284615
vt 0.915689 0.302146
vt 0.886537 0.314221
vt 0.855589 0.320377
vt 0.824034 0.320377
vt 0.793086 0.314221
vt 0.763934 0.302146
vt 0.737697 0.284615
vt 0.679623 0.144411
vt 0.685779 0.206914
vt 0.679623 0.175966
vt 0.697854 0.236066
vt 0.685779 0.113463
vt 0.715385 0.262303
vt 0.697854 0.084311
vt 0.715385 0.058074
vt 0.737697 0.035762
vt 0.763934 0.018231
vt 0.855589 0.000000
vt 0.793086 0.006156
vt 0.824034 0.000000
vt 0.886537 0.006156
vt 0.915689 0.018231
vt 0.981769 0.084311
vt 0.964238 0.058074
vt 0.941926 0.035762
vt 0.824034 0.320377
vt 0.855589 0.320377
vt 0.886537 0.326533
vt 0.915689 0.338609
vt 0.941926 0.356139
vt 0.964238 0.378452
vt 0.981769 0.404688
vt 0.993844 0.433840
vt 1.000000 0.464789
vt 1.000000 0.496343
vt 0.993844 0.527291
vt 0.981769 0.556444
vt 0.855589 0.640754
vt 0.915689 0.622523
vt 0.886537 0.634598
vt 0.941926 0.604992
vt 0.824034 0.640754
vt 0.964238 0.582680
vt 0.793086 0.634598
vt 0.763934 0.622523
vt 0.737697 0.604992
vt 0.715385 0.582680
vt 0.679623 0.464788
vt 0.685779 0.527291
vt 0.679623 0.496343
vt 0.697854 0.556444
vt 0.715385 0.378451
vt 0.685779 0.433840
vt 0.697854 0.404688
vn -0.9952 0.0977 0.0000
vn -0.9569 0.2904 0.0000
vn -0.8819 0.4714 0.0000
vn -0.7730 0.6345 0.0000
vn -0.7727 0.6348 0.0000
vn -0.6345 0.7730 0.0000
vn -0.6348 0.7727 0.0000
vn -0.4714 0.8819 0.0000
vn -0.2902 0.9570 0.0000
vn -0.2907 0.9568 0.0000
vn -0.0980 0.9952 0.0000
vn 0.0980 0.9952 -0.0000
vn 0.2907 0.9568 -0.0000
vn 0.2904 0.9569 -0.0000
vn 0.2903 0.9569 -0.0000
vn 0.4714 0.8819 -0.0000
vn 0.6345 0.7730 -0.0000
vn 0.6348 0.7727 -0.0000
vn 0.7730 0.6345 -0.0000
vn 0.8819 0.4714 -0.0000
vn 0.9568 0.2907 -0.0000
vn 0.9569 0.2904 -0.0000
vn 0.9952 0.0977 -0.0000
vn 0.9952 -0.0977 -0.0000
vn 0.9568 -0.2907 -0.0000
vn 0.9569 -0.2904 -0.0000
vn 0.8819 -0.4714 -0.0000
vn 0.7729 -0.6346 -0.0000
vn 0.7727 -0.6348 -0.0000
vn 0.6345 -0.7730 -0.0000
vn 0.4714 -0.8819 -0.0000
vn 0.2904 -0.9569 -0.0000
vn 0.2907 -0.9568 -0.0000
vn 0.0977 -0.9952 -0.0000
vn -0.0980 -0.9952 -0.0000
vn -0.2907 -0.9568 0.0000
vn -0.2904 -0.9569 0.0000
vn -0.4714 -0.8819 0.0000
vn -0.6345 -0.7730 0.0000
vn -0.6344 -0.7730 -0.0000
vn -0.7730 -0.6345 0.0000
vn -0.7727 -0.6348 0.0000
vn -0.8819 -0.4714 0.0000
vn 0.0000 0.0000 1.0000
vn -0.9952 -0.0977 0.0000
vn -0.9568 -0.2907 0.0000
vn 0.0000 0.0000 -1.0000
vn -0.7729 0.6346 0.0000
vn 0.2902 0.9570 -0.0000
vn 0.7730 -0.6345 -0.0000
vn 0.6344 -0.7730 -0.0000
vn -0.2903 -0.9569 0.0000
usemtl Material.001
s 1
f 1/1/1 2/2/1 3/3/1
f 3/3/2 4/4/2 5/5/2
f 5/5/3 6/6/3 7/7/3
f 7/7/4 8/8/5 9/9/5
f 9/9/6 10/10/7 11/11/6
f 11/12/8 12/13/8 13/14/8
f 13/14/9 14/15/10 15/16/10
f 15/16/11 16/17/11 17/18/11
f 17/18/12 18/19/12 19/20/12
f 19/20/13 20/21/14 21/22/15
f 21/22/16 22/23/16 23/24/16
f 23/24/17 24/25/17 25/26/18
f 25/27/19 26/28/19 27/29/19
f 27/29/20 28/30/20 29/31/20
f 29/31/21 30/32/22 31/33/22
f 31/33/23 32/34/23 33/35/23
f 33/35/24 34/36/24 35/37/24
f 35/37/25 36/38/26 37/39/26
f 37/39/27 38/40/27 39/41/27
f 39/41/28 40/42/29 41/43/29
f 41/44/30 42/45/30 43/46/30
f 43/46/31 44/47/31 45/48/31
f 45/48/32 46/49/33 47/50/33
f 47/50/34 48/51/34 49/52/34
f 49/52/35 50/53/35 51/54/35
f 51/54/36 52/55/36 53/56/37
f 53/56/38 54/57/38 55/58/38
f 55/58/39 56/59/40 57/60/39
f 57/61/41 58/62/42 59/63/42
f 59/63/43 60/64/43 61/65/43
f 4/66/44 2/67/44 6/68/44
f 62/69/45 63/70/45 1/1/45
f 61/65/46 64/71/46 62/69/46
f 1/72/47 3/73/47 62/74/47
f 2/2/1 4/4/1 3/3/1
f 4/4/2 6/6/2 5/5/2
f 6/6/3 8/8/3 7/7/3
f 8/8/5 10/10/48 9/9/5
f 10/10/7 12/75/6 11/11/6
f 12/13/8 14/15/8 13/14/8
f 14/15/10 16/17/10 15/16/10
f 16/17/11 18/19/11 17/18/11
f 18/19/12 20/21/12 19/20/12
f 20/21/14 22/23/49 21/22/15
f 22/23/16 24/25/16 23/24/16
f 24/25/17 26/76/17 25/26/18
f 26/28/19 28/30/19 27/29/19
f 28/30/20 30/32/20 29/31/20
f 30/32/22 32/34/22 31/33/22
f 32/34/23 34/36/23 33/35/23
f 34/36/24 36/38/24 35/37/24
f 36/38/26 38/40/26 37/39/26
f 38/40/27 40/42/27 39/41/27
f 40/42/29 42/77/50 41/43/29
f 42/45/30 44/47/51 43/46/30
f 44/47/31 46/49/31 45/48/31
f 46/49/33 48/51/33 47/50/33
f 48/51/34 50/53/34 49/52/34
f 50/53/35 52/55/35 51/54/35
f 52/55/36 54/57/52 53/56/37
f 54/57/38 56/59/38 55/58/38
f 56/59/40 58/78/39 57/60/39
f 58/62/42 60/64/41 59/63/42
f 60/64/43 64/71/43 61/65/43
f 2/67/44 63/79/44 6/68/44
f 63/79/44 64/80/44 6/68/44
f 64/80/44 60/81/44 6/68/44
f 60/81/44 58/82/44 6/68/44
f 58/82/44 56/83/44 6/68/44
f 56/83/44 54/84/44 6/68/44
f 54/84/44 52/85/44 6/68/44
f 52/85/44 50/86/44 6/68/44
f 50/86/44 48/87/44 6/68/44
f 48/87/44 46/88/44 6/68/44
f 46/88/44 44/89/44 6/68/44
f 34/90/44 38/91/44 36/92/44
f 34/90/44 40/93/44 38/91/44
f 32/94/44 40/93/44 34/90/44
f 42/95/44 40/93/44 32/94/44
f 42/95/44 32/94/44 30/96/44
f 42/95/44 30/96/44 28/97/44
f 44/89/44 42/95/44 28/97/44
f 44/89/44 28/97/44 26/98/44
f 44/89/44 26/98/44 24/99/44
f 18/100/44 22/101/44 20/102/44
f 16/103/44 22/101/44 18/100/44
f 6/68/44 44/89/44 24/99/44
f 14/104/44 22/101/44 16/103/44
f 8/105/44 6/68/44 24/99/44
f 10/106/44 8/105/44 24/99/44
f 12/107/44 10/106/44 24/99/44
f 14/104/44 12/107/44 22/101/44
f 12/107/44 24/99/44 22/101/44
f 63/70/45 2/2/45 1/1/45
f 64/71/46 63/70/46 62/69/46
f 3/73/47 5/108/47 62/74/47
f 5/108/47 7/109/47 62/74/47
f 7/109/47 9/110/47 62/74/47
f 9/110/47 11/111/47 62/74/47
f 11/111/47 13/112/47 62/74/47
f 13/112/47 15/113/47 62/74/47
f 15/113/47 17/114/47 62/74/47
f 17/114/47 19/115/47 62/74/47
f 19/115/47 21/116/47 62/74/47
f 21/116/47 23/117/47 62/74/47
f 23/117/47 25/118/47 62/74/47
f 25/118/47 27/119/47 62/74/47
f 37/120/47 33/121/47 35/122/47
f 37/120/47 31/123/47 33/121/47
f 39/124/47 31/123/47 37/120/47
f 29/125/47 31/123/47 39/124/47
f 29/125/47 39/124/47 41/126/47
f 27/119/47 29/125/47 41/126/47
f 27/119/47 41/126/47 43/127/47
f 27/119/47 43/127/47 45/128/47
f 27/119/47 45/128/47 47/129/47
f 55/130/47 51/131/47 53/132/47
f 55/130/47 49/133/47 51/131/47
f 55/130/47 47/129/47 49/133/47
f 27/119/47 47/129/47 55/130/47
f 61/134/47 57/135/47 59/136/47
f 61/134/47 62/74/47 57/135/47
f 62/74/47 27/119/47 57/135/47
f 27/119/47 55/130/47 57/135/47
